<svg xmlns="http://www.w3.org/2000/svg" viewBox="0 0 69 69">
  <g transform="translate(35 35)">
    <path
      d="M3.11040115,-31.722976680000002 C3.03419876,-31.7080841 2.9646644600000003,-31.674392700000002 2.89165115,-31.660476680000002 C2.90065384,-31.66249084 2.88965225,-31.666458130000002 2.86044693,-31.660476680000002 C2.37050247,-31.62287903 1.70871353,-31.45137024 1.11044693,-31.097976680000002 C0.51219559,-30.74464416 -0.03750229,-30.21577453 -0.23330307,-29.410476680000002 C-0.43847275,-28.56703186 -0.30289841,-27.85780334 -0.17080307,-27.129226680000002 C-0.04035568,-26.40986633 0.08241653,-25.66938782 -0.04580307,-24.691726680000002 C-0.59310532,-24.832473750000002 -1.14161301,-24.96577453 -1.70205307,-25.066726680000002 C-1.66994858,-25.60194397 -1.75434494,-25.969070430000002 -1.88955307,-26.222976680000002 C-2.03188706,-26.49024963 -2.24157334,-26.65803528 -2.42080307,-26.816726680000002 C-2.60000229,-26.97547912 -2.74431992,-27.13496399 -2.8270530700000003,-27.410476680000002 C-2.90975571,-27.68605041 -2.90945053,-28.08680725 -2.7645530700000003,-28.722976680000002 C-2.75855637,-28.74946594 -2.78284836,-28.79139709 -2.79574204,-28.81666565 C-2.80874252,-28.84217834 -2.83485031,-28.840286250000002 -2.85824204,-28.84791565 C-2.89335251,-28.85951233 -2.91224289,-28.85487366 -2.95194626,-28.84791565 C-2.95695114,-28.8528595 -2.97715378,-28.84388733 -2.98315048,-28.84791565 C-2.98914719,-28.851882930000002 -2.97715378,-28.876358030000002 -2.98315048,-28.87910461 C-3.0089531000000003,-28.89057922 -3.04624558,-28.9099884 -3.07685471,-28.91029358 C-3.13814926,-28.91096496 -3.21224594,-28.877395630000002 -3.29560471,-28.84779358 C-3.46229172,-28.78846741 -3.65688706,-28.687271120000002 -3.85810471,-28.50404358 C-4.2605094900000005,-28.1375885 -4.659832,-27.48493957 -4.60810471,-26.56654358 C-4.5790062,-26.05073547 -4.24441147,-25.66609192 -3.88935471,-25.34779358 C-4.55155564,-25.40437317 -5.2120323200000005,-25.44148254 -5.88935471,-25.44148254 C-6.53570175,-25.44148254 -7.164073950000001,-25.399795530000002 -7.79560471,-25.34779358 C-7.77160263,-25.42170715 -7.73800278,-25.48042297 -7.73310471,-25.56654358 C-7.68569565,-26.408767700000002 -7.97245407,-27.00325012 -8.295604710000001,-27.37904358 C-8.45716477,-27.56690979 -8.60587692,-27.704422 -8.764354710000001,-27.78529358 C-8.91123581,-27.86030578 -9.03666306,-27.89607239 -9.139354710000001,-27.87898254 C-9.15024948,-27.88496399 -9.15984726,-27.87397766 -9.17054367,-27.87898254 C-9.26154709,-27.92140198 -9.34722519,-27.94935608 -9.42054367,-27.94148254 C-9.5025444,-27.93251037 -9.59382248,-27.89479065 -9.60804367,-27.81648254 C-9.67264939,-27.46131897 -9.830348970000001,-27.22718811 -10.04554367,-27.03523254 C-10.26075363,-26.84327698 -10.51458359,-26.70106506 -10.76429367,-26.53523254 C-11.01401901,-26.36940002 -11.26969528,-26.15827942 -11.42054367,-25.87898254 C-11.567379,-25.60719299 -11.62363815,-25.2481842 -11.54554367,-24.75398254 C-11.60744858,-24.73579407 -11.67425156,-24.74061584 -11.73304367,-24.72279358 C-11.74004746,-24.74617004 -11.76885605,-24.76948547 -11.79554367,-24.78529358 C-14.28557968,-26.26643371 -16.63254929,-25.74543762 -18.48304367,-24.34779358 C-20.32218552,-22.95875549 -21.67593765,-20.70314026 -22.2955513,-18.69154358 C-22.2995491,-18.67915344 -22.323047640000002,-18.67256164 -22.3267479,-18.66035461 C-26.56158066,-14.4356842 -29.2017479,-8.58137512 -29.2017479,-2.12916565 C-29.2017479,1.49534607 -28.36488724,4.90483093 -26.8892479,7.96470642 C-27.65859604,7.78575134 -28.17174912,7.7433929500000005 -28.5454979,7.80833435 C-28.91924668,7.87327576 -29.1413002,8.03904724 -29.3267479,8.24583435 C-29.69765091,8.65953064 -29.9119072,9.22557068 -30.8579979,9.55833435 C-30.93759537,9.58628845 -30.97053909,9.62437439 -30.9829979,9.68333435 C-30.98900223,9.71336365 -30.99740219,9.72434998 -30.9829979,9.74534607 C-30.97600174,9.7563324 -30.96089554,9.768295290000001 -30.9518013,9.77635193 C-30.946796420000002,9.78733826 -30.9271965,9.79832459 -30.92059708,9.807357790000001 C-30.88640213,9.857284550000001 -30.81328964,9.89427185 -30.73309708,9.932357790000001 C-30.637401580000002,9.97727966 -30.509296420000002,10.03721619 -30.35809708,10.088607790000001 C-30.0556984,10.19139099 -29.68533707,10.28746033 -29.26434708,10.432357790000001 C-28.4223671,10.72227478 -27.46651077,11.141220090000001 -27.04559708,11.682357790000001 C-26.9971962,11.74436951 -26.9422493,11.761337280000001 -26.85809708,11.77635193 C-26.77399826,11.79136658 -26.68218613,11.79026795 -26.57684708,11.77635193 C-26.36617661,11.74827576 -26.095859530000002,11.6749115 -25.85809708,11.58885193 C-25.40169907,11.42356873 -25.00317764,11.2394867 -24.95184708,11.21385193 C-24.03175736,12.526962280000001 -22.99175644,13.74351502 -21.82684708,14.83885193 C-21.96043015,15.037826540000001 -22.20898056,15.38304138 -22.42059708,15.77635193 C-22.64044571,16.18492127 -22.83002854,16.62986756 -22.82684708,16.93247986 C-22.81664658,17.90525818 -21.83325577,19.01695252 -23.01434708,20.61997986 C-23.10654831,20.74497986 -23.1374321,20.84837341 -23.1080513,20.96385193 C-23.0787468,21.07933045 -23.01044846,21.2004242 -22.8893013,21.27635193 C-22.64691544,21.427963260000002 -22.25349045,21.48387146 -21.7955513,21.46385193 C-21.128582,21.53282166 -20.20382309,21.36582947 -19.38929367,20.80747986 C-18.58953476,20.25950623 -17.9166832,19.32957459 -17.73304367,17.90135193 C-17.15151596,18.24876404 -16.56946945,18.603866580000002 -15.95179367,18.90135193 C-16.182811740000002,18.99632263 -16.41488266,19.1926117 -16.60804367,19.46385193 C-16.820903780000002,19.76268006 -16.99372482,20.11485291 -17.10804367,20.30747986 C-17.2969017,20.62608338 -17.36169052,20.95347595 -17.35804367,21.30747986 C-17.35404587,21.66172791 -17.3010521,22.0330658 -17.29554367,22.46385193 C-17.28445053,23.32518006 -17.434398650000002,24.40672302 -18.51429367,25.86997986 C-18.538494110000002,25.90306091 -18.57940293,25.92601013 -18.57679367,25.963974 C-18.57380295,26.002059940000002 -18.54119492,26.03196716 -18.51429367,26.05796814 C-18.46039963,26.10899353 -18.37087631,26.15818787 -18.26429367,26.18296814 C-18.05114365,26.23301697 -17.74502182,26.22801209 -17.38929367,26.213974 C-16.94413376,26.23899841 -16.359844210000002,26.22398377 -15.79554367,26.088974 C-15.25645065,25.96470642 -14.76484299,25.74375916 -14.45179367,25.432724 C-14.3876915,25.5276947 -14.32598496,25.6033783 -14.26429367,25.682724 C-14.23089218,25.72569275 -14.207698820000001,25.78269959 -14.170604710000001,25.807724 C-14.15580368,25.81773377 -14.12620163,25.79771424 -14.108104710000001,25.807724 C-14.09699631,25.83970642 -14.061306,25.87571716 -14.045604710000001,25.90171814 C-14.035594940000001,25.91770935 -14.03759384,25.92173767 -14.01440048,25.932724 C-13.99129868,25.943710330000002 -13.94230271,25.94273377 -13.92069626,25.932724 C-13.6734581,25.81370545 -13.36013413,25.554794310000002 -13.01444626,25.182724 C-12.66875839,24.810775760000002 -12.289165500000001,24.326400760000002 -11.95194626,23.807724 C-11.29003525,22.78977966 -10.75788498,21.59153748 -10.79569626,20.620224 C-10.41207504,20.70018006 -10.0268364,20.77928162 -9.63944626,20.838974 C-9.79958725,21.03660584 -9.94613266,21.24375916 -10.01444626,21.432724 C-10.14857102,21.80381775 -10.18867111,22.36009216 -10.10815048,22.932724 C-10.02764511,23.50547791 -9.80909348,24.09947205 -9.35815048,24.495224 C-8.87545395,24.91868591 -8.18989182,25.12986756 -7.54565048,25.495224 C-6.9013938900000005,25.86045838 -6.31257248,26.36473084 -5.95190048,27.401474 C-5.61629868,28.36631775 -5.95289231,29.02476502 -6.35815048,29.557724 C-6.56069565,29.824325560000002 -6.76800156,30.04454041 -6.92065048,30.276474 C-7.07329941,30.50852966 -7.18285752,30.746078490000002 -7.10815048,30.995224 C-6.97707749,31.43223572 -6.75770188,31.675888060000002 -6.51440048,31.807724 C-6.27109909,31.939682010000002 -5.99059677,31.955429080000002 -5.73315048,31.995224 C-5.66204453,32.01426697 -5.59074021,32.03916931 -5.51440048,32.05723572 C-5.45559311,32.07127381 -5.43160629,32.07420349 -5.38940048,32.08824158 C-5.33869553,32.10423279 -5.28458786,32.12718201 -5.23315048,32.1502533 C-5.16884995,32.18223572 -5.10784531,32.22422791 -5.04565048,32.2752533 C-5.00104904,32.30918884 -4.95144272,32.337265020000004 -4.92065048,32.36924744 C-4.7538414,32.54710388 -4.6433219900000005,32.82273865 -4.54565048,33.27549744 C-4.54557419,33.27586365 -4.51655197,33.27549744 -4.51444626,33.27549744 C-4.51244736,33.27549744 -4.5145988500000005,33.3065033 -4.51444626,33.3065033 C-4.51444626,33.3065033 -4.48324204,33.3065033 -4.48324204,33.3065033 C-4.47625351,33.3245697 -4.4872551000000005,33.34947205 -4.48324204,33.368515020000004 C-4.47625351,33.40049744 -4.45225144,33.42051697 -4.42074204,33.43052674 C-4.3892479,33.44151306 -4.35784531,33.4405365 -4.32705307,33.43052674 C-4.26534653,33.4125824 -4.18441391,33.368515020000004 -4.10830307,33.30552674 C-3.95606613,33.18003845 -3.7824668900000002,32.98216248 -3.6395530700000003,32.71177674 C-3.35371018,32.17137146 -3.2286338800000003,31.39390564 -3.7958030700000003,30.58677674 C-3.8370018,30.52781677 -3.84600449,30.45005799 -3.82699204,30.36802674 C-3.80799484,30.28599549 -3.7449913,30.19456482 -3.67074204,30.08677674 C-3.5222435,29.871200560000002 -3.28632736,29.61778259 -3.01449204,29.33677674 C-2.47082138,28.77500916 -1.7969017,28.10301209 -1.57699204,27.39927674 C-1.32606125,26.59629822 -1.68493271,25.96372986 -2.10824204,25.39927674 C-2.53155136,24.83494568 -3.0171775800000002,24.31578064 -3.07699204,23.83677674 C-3.13830185,23.345932010000002 -2.9039878900000002,22.81590271 -2.67074204,22.30552674 C-2.43751145,21.795272830000002 -2.19713974,21.31370545 -2.35824204,20.89927674 C-2.3602562000000002,20.88926697 -2.35525131,20.877304080000002 -2.35824204,20.86827088 C-1.85335922,20.7933197 -1.35348129,20.69578552 -0.85824204,20.58714295 C-0.85824204,20.58714295 -0.8270530700000001,20.58714295 -0.8270530700000001,20.58714295 C-0.8270530700000001,20.58714295 -0.8270530700000001,20.61814881 -0.8270530700000001,20.61814881 C0.45750809000000003,21.87315369 1.70938492,22.46678162 2.82919693,22.86814881 C3.9490242,23.26939392 4.9290351800000005,23.47642517 5.64169693,23.99314881 C5.68440628,24.02415466 5.72789383,24.05516052 5.76669693,24.08714295 C5.9771766600000005,24.25657654 6.17012405,24.43650818 6.32919693,24.68077088 C6.32919693,24.68077088 6.32919693,24.71177674 6.32919693,24.71177674 C6.3515052800000005,24.74583435 6.37340164,24.74485779 6.39169693,24.77378845 C6.64258194,25.19322205 6.77472305,25.78013611 6.86044693,26.52378845 C6.86745071,26.58079529 6.90364456,26.60081482 6.92294693,26.61778259 C6.92988101,26.62769275 6.9540600800000005,26.64932889 6.95415561,26.64881082 C6.95814076,26.66882736 6.94714998,26.69481492 6.95415115,26.71080017 C6.96574783,26.73777771 6.98715591,26.760849 7.01665115,26.77281189 C7.0461463900000005,26.78587341 7.08525467,26.78587341 7.110355380000001,26.77281189 C7.13545608,26.759872440000002 7.15094375,26.732772830000002 7.172855380000001,26.71080017 C7.26045608,26.61680603 7.37273025,26.435775760000002 7.485355380000001,26.17955017 C7.71059036,25.667099 7.96889114,24.85484314 8.17285538,23.96080017 C8.37681961,23.06687927 8.51341629,22.088974 8.48535538,21.21080017 C8.45724869,20.33274841 8.25310135,19.55027771 7.766605380000001,19.08580017 C7.50534439,18.83641052 7.0677986100000005,18.5910492 6.610355380000001,18.33580017 C7.23373794,18.49497986 8.26774978,18.68736267 9.07910538,18.429794310000002 C9.39157486,18.33079529 10.89505386,17.83836365 12.01660538,16.71116638 C12.37533951,17.08946228 12.68985367,17.545150760000002 13.01660538,18.21116638 C13.290958400000001,18.77037049 13.36415481,19.19993591 13.29785538,19.52366638 C13.23155594,19.84727478 13.02905655,20.07054138 12.79785538,20.242294310000002 C12.5666542,20.414047240000002 12.30694961,20.53587341 12.07910538,20.617294310000002 C11.96518326,20.65830994 11.84770584,20.68028259 11.76660538,20.71128845 C11.68550491,20.74131775 11.64946365,20.787338260000002 11.61035538,20.83628845 C11.55095291,20.910263060000002 11.50784683,20.95396424 11.51665115,21.02378845 C11.52565384,21.093856810000002 11.575550080000001,21.17662049 11.64165115,21.21128845 C11.77377701,21.28038025 11.97829056,21.27232361 12.23540115,21.242294310000002 C12.51529312,21.29026795 12.94279861,21.23228455 13.42290115,21.054794310000002 C13.90300369,20.87486267 14.410449980000001,20.588974 14.79790115,20.14866638 C15.18535232,19.7082367 15.47227859,19.0988617 15.45415115,18.367294310000002 C15.43605423,17.63572693 15.1157875,16.78416443 14.39165115,15.74229431 C14.05722427,15.26097107 13.64149856,14.93296814 13.17290115,14.71116638 C13.35824966,13.906723020000001 13.305088040000001,12.93077088 12.86040115,11.80479431 C13.01106643,11.81480408 13.14657974,11.8278656 13.32915115,11.83580017 C14.100696560000001,11.87083435 14.53645706,12.1625824 14.89165115,12.52330017 C15.24684524,12.88401795 15.51823807,13.33152771 15.95415115,13.71080017 C16.31325149,14.0231781 16.66688919,14.2731781 16.98540115,14.46080017 C17.30392837,14.64842224 17.594120020000002,14.76182556 17.76665115,14.80455017 C17.82265091,14.84153748 17.88339615,14.875473020000001 17.92290115,14.89854431 C17.95100784,14.914535520000001 17.96559524,14.92051697 17.98540115,14.92955017 C17.99780655,14.93955994 18.00479507,14.957504270000001 18.01660538,14.960556030000001 C18.021595,14.96116638 18.04669571,14.9606781 18.04779434,14.960556030000001 C18.048236850000002,14.96031189 18.07870865,14.96080017 18.07899856,14.960556030000001 C18.07930374,14.96018982 18.07883072,14.92955017 18.07899856,14.92955017 C18.07904434,14.92918396 18.07909012,14.89854431 18.07899856,14.89854431 C18.076999660000002,14.888534550000001 18.08099747,14.871566770000001 18.07899856,14.86753845 C18.07899856,14.86753845 18.04779434,14.86753845 18.04779434,14.86753845 C18.035404200000002,14.85350037 18.00580215,14.8245697 17.98529434,14.80552674 C17.994297030000002,14.79551697 17.98230362,14.78648377 17.98529434,14.77452088 C17.9893074,14.756576540000001 18.02190018,14.7575531 18.01649856,14.74351502 C17.99870682,14.69651795 17.95230484,14.63890076 17.89149856,14.58726502 C17.81799698,14.52427674 17.74353409,14.44737244 17.67274856,14.33726502 C17.67274856,14.33726502 17.70395279,14.33726502 17.70395279,14.33726502 C17.447055810000002,13.785629270000001 17.335392,12.88414002 17.39145279,12.08726502 C17.419452670000002,11.68894959 17.47224808,11.319076540000001 17.57895279,11.02476502 C17.67935562,10.74803162 17.82793045,10.55418396 17.98520279,10.46226502 C18.21553421,10.61460877 18.46458816,11.03208924 18.70395279,11.49351502 C18.95161819,11.97080994 19.20422745,12.4919281 19.42270279,12.80601502 C19.745716090000002,13.27085877 20.2231636,13.814315800000001 20.70395279,14.27476502 C21.18474197,14.735336310000001 21.66261673,15.09239197 22.01645279,15.18101502 C22.071949,15.1950531 22.1688118,15.21104431 22.29770279,15.21202088 C22.42659378,15.21202088 22.56578445,15.197982790000001 22.73520279,15.18101502 C23.03578567,15.18101502 23.52243423,15.13206482 23.92270279,14.89976502 C24.322971340000002,14.667587280000001 24.640995020000002,14.237899780000001 24.57895279,13.52476502 C24.576953890000002,13.49681091 24.57095718,13.48277283 24.547748560000002,13.46287537 C24.52444839,13.44078064 24.47874832,13.42478943 24.45404434,13.43186951 C24.40454483,13.445785520000001 24.373752590000002,13.47984314 24.32904434,13.52586365 C24.31904983,13.52500916 24.30644607,13.52586365 24.29785538,13.52586365 C24.27194595,13.52586365 24.26094436,13.54380799 24.23535538,13.55686951 C24.18414688,13.583847050000001 24.11824417,13.60386658 24.04785538,13.65086365 C23.913517,13.73985291 23.73944473,13.86790466 23.54785538,13.93199158 C23.54085159,13.93125916 23.52415848,13.93199158 23.51665115,13.93199158 C23.37347793,13.911972050000001 23.223026270000002,13.83702088 23.04790115,13.68199158 C22.99730301,13.6370697 22.97800064,13.56285095 22.954196930000002,13.43199158 C22.93040848,13.301376340000001 22.90140152,13.13230896 22.891696930000002,12.93199158 C22.87230301,12.53147888 22.85100174,11.98826599 22.735446930000002,11.40086365 C22.50429153,10.22593689 21.87936783,8.79734802 20.016696930000002,7.52586365 C19.55186844,7.20835877 18.99852371,7.1635589600000005 18.422946930000002,7.18199158 C17.425357820000002,7.10997009 16.32852554,7.45677185 15.42294693,7.52586365 C15.42294693,7.52586365 15.36044693,7.52586365 15.36044693,7.52586365 C15.96704483,6.19602966 16.41685867,4.78813172 16.766696930000002,3.33830261 C16.88533401,3.37034607 16.98386001,3.4103241 17.110446930000002,3.46330261 C17.11644363,3.47331238 17.11944961,3.48631287 17.14165115,3.49430847 C17.46339798,3.6325531 17.83205032,3.77531433 18.11040115,3.9006195100000003 C18.28435135,3.979599 18.44540787,4.04179382 18.57915115,4.08811951 C18.71289444,4.13414002 18.83560562,4.17509461 18.92290115,4.15013123 C18.96660232,4.1381073 19.00329971,4.10209656 19.01660538,4.05613709 C19.03000259,4.01011658 19.00369644,3.95915222 18.98540115,3.89994812 C18.948795320000002,3.7806243900000003 18.85936355,3.6302948 18.70415115,3.39994812 C18.48866653,3.08000183 18.39624405,2.81004334 18.36040115,2.61863709 C18.32460403,2.4271087700000002 18.36839676,2.31291199 18.45410538,2.21244812 C18.62498855,2.01152039 19.00630569,1.9140472400000001 19.45410538,1.86863709 C19.54019546,1.86863709 19.60911941,1.84263611 19.67285538,1.83763123 C19.90239334,1.8176117 20.14325332,1.80863953 20.36035538,1.77561951 C21.07509231,1.66270447 21.325504300000002,1.39054871 21.61035538,1.15061951 C21.89520645,0.91075134 22.22764969,0.69004822 23.23535538,0.61930847 C23.41055679,0.60734558 23.60835647,0.50590515 23.79785538,0.30680847 C23.98735428,0.10783386 24.16089248,-0.17366028 24.36035538,-0.50569153 C24.7592659,-1.1698761 25.1632576,-2.06306457 25.48535538,-2.97438049 C25.807468410000002,-3.88569641 26.06418228,-4.8255767800000005 26.14160538,-5.59938049 C26.18030166,-5.98628235 26.166294100000002,-6.31636047 26.11040115,-6.59938049 C26.0544014,-6.88240051 25.95059585,-7.12678528 25.76665115,-7.25569153 C25.752155300000002,-7.26570129 25.72745132,-7.25569153 25.70415115,-7.25569153 C25.69014358,-7.25569153 25.68225479,-7.23170471 25.672946930000002,-7.22468567 C25.6679573,-7.23469543 25.64725113,-7.2146759000000005 25.64175796,-7.22468567 C25.62504959,-7.24269104 25.6317482,-7.2726593 25.61055374,-7.2866973900000005 C25.58255386,-7.30665588 25.54585647,-7.30567932 25.51684952,-7.2866973900000005 C25.48775101,-7.26765442 25.469745630000002,-7.25367737 25.45434952,-7.22468567 C25.42355728,-7.16267395 25.39114761,-7.0553741400000005 25.36064529,-6.9434967 C25.299655910000002,-6.71949768 25.2354927,-6.40589905 25.11064529,-6.0684967 C24.86096573,-5.39344787 24.42097854,-4.64167785 23.51689529,-4.3809967 C23.38086319,-4.34199524 23.25595474,-4.3099517800000005 23.11064529,-4.28700256 C21.341205600000002,-4.1889801 18.96469498,-4.90925598 17.23564529,-5.00575256 C17.13132095,-5.864151000000001 16.99370193,-6.70820618 16.79814529,-7.53700256 C17.2237587,-7.71199035 17.61317825,-7.87019348 17.92314529,-8.09950256 C18.32898331,-8.399368280000001 19.03424454,-9.22254944 19.67314529,-10.25575256 C20.31206131,-11.28907776 20.88942337,-12.52296448 21.01689529,-13.59950256 C21.25810623,-15.63624573 21.0518074,-17.35536194 20.98570633,-18.94319153 C20.91960525,-20.53108215 20.99769974,-22.00312805 21.76695633,-23.56819153 C22.07196426,-24.18867493 22.73987198,-24.600296020000002 23.48570633,-24.94319153 C24.23152542,-25.28608703 25.04245376,-25.55177307 25.61070633,-25.84944153 C25.647602080000002,-25.86872864 25.6609993,-25.9042511 25.67320633,-25.94313049 C25.6853981,-25.98213196 25.69189834,-26.02912903 25.67320633,-26.06813049 C25.63580704,-26.14625549 25.55702591,-26.21730041 25.42320633,-26.28688049 C25.15556717,-26.42604065 24.67213821,-26.53193664 23.92320633,-26.53688049 C23.22546768,-26.58869934 22.23637771,-26.50856018 20.82945633,-26.19313049 C19.27008438,-25.84364319 18.26620865,-25.15303039 17.64195633,-24.28688049 C17.01770401,-23.42079162 16.75131607,-22.39582825 16.61070633,-21.41188049 C16.60670852,-21.38270569 16.59019852,-21.35566711 16.54820633,-21.31819153 C16.50619888,-21.28059387 16.43559646,-21.214492800000002 16.36070633,-21.16194153 C16.21092605,-21.05683899 16.02597427,-20.91084289 15.829456330000001,-20.66194153 C15.43637466,-20.16413879 15.048206330000001,-19.25605774 15.048206330000001,-17.44319153 C15.048206330000001,-17.33094787 15.04420852,-17.25007629 15.017002100000001,-17.19325256 C14.98959732,-17.13624573 14.94479751,-17.12825012 14.892002100000001,-17.09925842 C14.78633499,-17.04225159 14.60818863,-17.00727844 14.392002100000001,-16.97425842 C13.96783829,-16.91029358 13.39072037,-16.78218078 12.767002100000001,-16.06806946 C12.6241951,-16.26008606 12.47888565,-16.47358703 12.329502100000001,-16.66175842 C12.53613663,-17.00819397 12.65912247,-17.33906555 12.704502100000001,-17.59925842 C12.72810745,-17.7346344 12.75079727,-17.8565216 12.735706330000001,-17.94300842 C12.72769546,-17.98616028 12.69540787,-18.00636291 12.673206330000001,-18.03669739 C12.65100479,-18.06721496 12.61920547,-18.09919739 12.579502100000001,-18.09919739 C12.36488724,-18.09931946 12.17300796,-18.03041076 11.985752100000001,-17.94294739 C11.97674942,-17.93891907 11.96374893,-17.94691467 11.95454788,-17.94294739 C11.78963089,-17.906021120000002 11.60242081,-17.83137512 11.42329788,-17.75544739 C10.83879471,-18.40345764 10.20225906,-19.019851680000002 9.54829788,-19.59919739 C10.20494461,-20.02796936 10.90329361,-20.48420715 11.92329788,-20.72419739 C12.85217666,-20.94276428 13.68536758,-21.71430969 14.01704788,-23.03669739 C14.34874344,-24.35908508 14.20837784,-26.21986389 13.14204788,-28.59919739 C12.92119217,-29.09199524 13.00740433,-29.88447571 13.07954788,-30.47419739 C13.115650180000001,-30.76899719 13.13525772,-31.00331116 13.110752100000001,-31.16169739 C13.1047554,-31.2013092 13.09724808,-31.22511291 13.07954788,-31.255386350000002 C13.06184768,-31.28565979 13.02145767,-31.30818176 12.98584366,-31.317886350000002 C12.91455459,-31.337295530000002 12.856693270000001,-31.32191467 12.76709366,-31.255386350000002 C12.69679642,-31.20350647 12.65732193,-31.13838196 12.61084366,-31.099136350000002 C12.60785293,-31.09712219 12.59854507,-31.10212707 12.57965469,-31.099136350000002 C12.56074905,-31.096145630000002 12.54405594,-31.08784485 12.51715469,-31.06794739 C11.598987580000001,-30.39143371 11.13672256,-29.39241028 10.64215469,-28.28669739 C10.14758682,-27.1809845 9.62804031,-25.97254944 8.54840469,-24.78669739 C8.46980667,-24.7002716 8.27493667,-24.53907776 8.01715469,-24.38044739 C7.75935745,-24.22181701 7.4187660200000005,-24.047195430000002 7.07965469,-23.84919739 C6.4144783,-23.46076965 5.7002754200000005,-23.03974914 5.23590469,-22.63044739 C5.09433365,-22.71174621 4.9518775900000005,-22.80134582 4.79840469,-22.88044739 C5.22603226,-23.61421203 5.38469314,-24.835586550000002 5.32965469,-25.34919739 C5.22165298,-26.35713196 4.83278274,-26.82752991 4.42340469,-27.19294739 C4.01402664,-27.55830383 3.60020828,-27.80238342 3.32965469,-28.31794739 C3.06799698,-28.81629944 2.8909492500000002,-29.43049621 2.92340469,-29.97419739 C2.9559059100000002,-30.51789856 3.18100357,-30.99702453 3.70465469,-31.31794739 C3.7992439300000003,-31.37593078 3.84079361,-31.437942500000002 3.86090469,-31.50544739 C3.87100601,-31.539260860000002 3.87739944,-31.569046020000002 3.86090469,-31.599136350000002 C3.84439468,-31.629348750000002 3.8293037400000003,-31.64381409 3.79840469,-31.661636350000002 C3.67479324,-31.73274231 3.45576858,-31.75312805 3.17340469,-31.724136350000002 C3.17340469,-31.724136350000002 3.11040115,-31.722976680000002 3.11040115,-31.722976680000002 ZM-6.5770988500000005,-23.941726680000002 C-2.48005295,-23.941726680000002 1.34544754,-22.796524050000002 4.61040115,-20.816726680000002 C4.5863990800000005,-19.82710266 4.9471168500000005,-19.0908966 5.51665115,-18.847976680000002 C6.05940628,-18.61653137 6.50642776,-18.5851593 6.92290115,-18.629226680000002 C7.157444,-18.61152649 7.36911392,-18.61604309 7.57915115,-18.66041565 C8.221347810000001,-18.10267639 8.81947708,-17.47694397 9.39165115,-16.84797668 C8.66113663,-16.60646057 7.9749794000000005,-16.37416076 7.86040115,-16.31678772 C7.27655411,-16.02479553 8.93489456,-15.070571900000001 9.67290115,-15.19178772 C9.67290115,-15.19178772 9.73540115,-15.19178772 9.73540115,-15.19178772 C9.87117386,-15.168777460000001 10.003681180000001,-15.17378235 10.11040115,-15.19178772 C10.31068802,-15.2247467 10.46803665,-15.28877258 10.64165115,-15.34797668 C10.96936416,-14.91474914 11.31554031,-14.493301390000001 11.61040115,-14.03547668 C10.894824980000001,-12.98646545 9.41090774,-13.13996887 9.61040115,-12.41047668 C9.90750503,-11.32435608 10.93890762,-12.37550354 10.29790115,-9.59797668 C10.14726639,-8.94544983 11.06129837,-7.28437805 12.61040115,-6.91047668 C12.80920791,-6.86250305 13.07382583,-6.87147522 13.36040115,-6.87947082 C13.68478775,-6.85145569 14.08047867,-6.84846496 14.51665115,-6.91047668 C14.66910171,-6.19935608 14.780048370000001,-5.48945618 14.86040115,-4.75428772 C14.781208040000001,-4.74427795 14.68519974,-4.72828674 14.61040115,-4.72328186 C14.48289871,-4.71327209 14.35336685,-4.70124817 14.23540115,-4.692276 C13.51672745,-4.65827942 12.94345474,-4.62428284 12.29790115,-4.067276 C12.102298730000001,-3.89808655 11.9189949,-3.82820129 11.73540115,-3.7859649600000003 C11.69350052,-3.78590393 11.65109634,-3.78614807 11.61040115,-3.7859649600000003 C11.11247635,-3.7179718 10.6851387,-3.8799591 10.36040115,-3.4109649600000003 C9.71939468,-2.4851837100000003 9.92074966,-1.02876282 9.17290115,-0.067276 C8.76184463,0.46122742 9.667514800000001,1.81962586 10.04790115,2.370224 C10.27557754,2.69975281 11.13803482,3.18760681 11.82915115,3.33903504 C12.34756851,3.45280457 13.02594375,3.5957489000000002 13.86040115,3.620224 C13.94800186,3.6302337700000002 14.04771805,3.6482391400000003 14.14165115,3.65122986 C13.87965774,4.5511322000000005 13.57605362,5.42893982 13.20415115,6.27622986 C13.15485,6.25224304 13.10126114,6.23222351 13.04790115,6.21421814 C12.691471100000001,6.09294129 11.97325516,6.00700379 11.29790115,6.02671814 C10.65904617,6.00669861 10.00195694,6.06474304 9.67290115,6.24540711 C9.08615494,6.56755066 8.162754060000001,6.72496033 7.98540115,7.37046814 C7.87921524,7.75657654 7.28215408,8.900253300000001 7.61040115,9.52684021 C7.77614212,9.84336853 8.04210281,9.82591248 8.32915115,9.77684021 C8.49533462,9.82188416 8.68431473,9.776474 8.89165115,9.74583435 C9.22171402,9.80186463 9.52467727,10.03648377 9.76665115,10.93333435 C9.81645584,11.11802674 9.9179573,11.264389040000001 10.07915115,11.37083435 C9.69005203,11.84117127 9.28732681,12.31016541 8.86040115,12.74583435 C8.53815079,12.29429627 8.19086075,11.85496521 7.86040115,11.58958435 C7.44116592,11.25340271 6.64062881,11.15208435 5.98540115,11.18333435 C5.70227432,11.17027283 5.40205765,11.18357849 5.17290115,11.21434021 C4.5112648,11.31614685 4.8103981000000005,11.106063840000001 4.42290115,11.65184021 C3.87242508,12.42747498 4.43309402,13.224472050000001 4.86040115,13.65184021 C4.87700271,13.66880799 4.90390396,13.69688416 4.92290115,13.71385193 C3.64194107,13.3155365 2.1782875,12.72642517 0.42290115,11.86997986 C-5.41733933,9.02098084 -9.091259,4.80021668 -9.35834885,3.83872986 C-9.5298729,3.22105408 -5.19706345,-0.32875061 -6.9520988500000005,-0.5987701400000001 C-13.89637375,-1.66706848 -17.21097946,-7.22297668 -17.79584885,-6.38008118 C-19.612041480000002,-3.7625885 -19.02737045,7.46080017 -17.26459885,7.99497986 C-15.96131516,8.38975525 -14.392513280000001,6.45054627 -13.85834885,6.5574188200000005 C-12.95112229,6.7386322000000005 -8.93122482,14.14793396 -0.57709885,16.40135193 C-0.65629196,16.40135193 -0.7529869100000001,16.39134216 -0.82709885,16.40135193 C-1.26420212,16.43431091 -1.96027756,16.8278656 -2.04584885,17.68247986 C-2.07455063,17.968734740000002 -1.9836540200000001,18.31358338 -1.85834885,18.68247986 C-2.38285446,18.79966736 -2.91399765,18.91685486 -3.45209885,18.99497986 C-3.60407639,18.81394959 -3.7606468200000003,18.68223572 -3.92084885,18.61997986 C-4.11446762,18.54490662 -4.39219284,18.53196716 -4.7020988500000005,18.55796814 C-5.42411423,18.50694275 -6.56524277,18.79185486 -7.0770988500000005,19.02671814 C-7.1547966,19.06272888 -7.26885605,19.13597107 -7.3583488500000005,19.18296814 C-18.91825485,18.77537537 -28.139598850000002,9.28050232 -28.139598850000002,-2.37965393 C-28.139598850000002,-7.92695618 -26.04359055,-12.96705627 -22.60834885,-16.78590393 C-22.62324906,-16.47535705 -22.61925125,-16.17518616 -22.57715225,-15.91090393 C-22.5182457,-15.54170227 -25.07715225,-13.338088990000001 -25.07715225,-12.22340393 C-25.07715225,-12.22340393 -18.71421433,-6.78999328 -18.202144620000002,-7.94215393 C-17.77480698,-8.90370178 -19.27680588,-13.720901490000001 -14.20214462,-20.50459289 C-13.64815903,-21.24513244 -17.764644620000002,-19.59834289 -17.764644620000002,-19.59834289 C-17.764644620000002,-19.59834289 -17.702144620000002,-20.66084289 -17.702144620000002,-20.66084289 C-17.702144620000002,-20.66084289 -17.66114426,-20.83778381 -17.639644620000002,-20.91084289 C-14.40832138,-22.84169006 -10.61913681,-23.94209289 -6.57714462,-23.94209289 C-6.57714462,-23.94209289 -6.5770988500000005,-23.941726680000002 -6.5770988500000005,-23.941726680000002 ZM-14.79584885,19.37071228 C-14.38810349,19.53977966 -13.96491623,19.69346619 -13.54584885,19.83958435 C-13.79111862,20.07078552 -14.02247238,20.30345154 -14.23334885,20.40208435 C-14.46197128,20.24497986 -14.595012670000001,19.75828552 -14.79584885,19.37071228 ZM-14.42084885,-24.066747030000002 C-14.25828171,-24.06874084 -14.09778976,-24.06575012 -13.92084885,-24.03553772 C-13.88035202,-24.02851868 -13.78866196,-24.03608704 -13.73334885,-24.03553772 C-14.77569199,-23.661636350000002 -15.79726791,-23.204605100000002 -16.76459885,-22.69178772 C-16.24537277,-23.41651917 -15.47950363,-24.05531311 -14.42084885,-24.066747030000002 ZM12.48540115,12.08958435 C12.30553055,12.61485291 11.90120316,13.41819763 10.86040115,13.933212280000001 C11.42993546,13.34361267 11.98041153,12.73643494 12.48540115,12.08958435 Z" 
    />
    <path
      d="M8.485401153564453,-32.95997619628906 C8.437503814697266,-32.96095275878906 8.351398468017578,-32.95912170410156 8.266651153564453,-32.89747619628906 C8.09695816040039,-32.79304504394531 7.844821929931641,-32.54518127441406 7.641651153564453,-32.20997619628906 C7.438480377197266,-31.874771118164063 7.280765533447266,-31.440750122070313 7.329151153564453,-30.991226196289063 C7.367343902587891,-30.636795043945313 7.521945953369141,-30.264785766601563 7.672901153564453,-29.991226196289063 C7.748401641845703,-29.854446411132813 7.823154449462891,-29.754776000976563 7.891651153564453,-29.678726196289063 C7.925846099853516,-29.640701293945313 7.952152252197266,-29.604202270507813 7.985355377197266,-29.585037231445313 C8.001956939697266,-29.575027465820313 8.027545928955078,-29.587051391601563 8.047855377197266,-29.585037231445313 C8.085346221923828,-29.550796508789063 8.126056671142578,-29.522903442382813 8.172855377197266,-29.522537231445313 C8.196247100830078,-29.522354125976563 8.21884536743164,-29.536209106445313 8.235355377197266,-29.553726196289063 C8.251850128173828,-29.571304321289063 8.26205825805664,-29.594497680664063 8.266544342041016,-29.616226196289063 C8.46542739868164,-30.556045532226563 8.350650787353516,-31.833267211914063 8.579044342041016,-32.83497619628906 C8.58505630493164,-32.86286926269531 8.56265640258789,-32.90138244628906 8.547855377197266,-32.92866516113281 C8.53305435180664,-32.95606994628906 8.511951446533203,-32.95899963378906 8.485355377197266,-32.95985412597656 C8.485355377197266,-32.95985412597656 8.485401153564453,-32.95997619628906 8.485401153564453,-32.95997619628906 C8.485401153564453,-32.95997619628906 8.485401153564453,-32.95997619628906 8.485401153564453,-32.95997619628906 Z"
    />
    <path
      d="M-1.2958488464355469,-33.99122619628906 C-2.1992759704589844,-33.93409729003906 -3.481945037841797,-33.71076965332031 -4.389598846435547,-33.11622619628906 C-4.575145721435547,-32.99470520019531 -4.674541473388672,-32.81098937988281 -4.764598846435547,-32.58497619628906 C-4.854595184326172,-32.35896301269531 -4.945583343505859,-32.08631896972656 -5.077098846435547,-31.741226196289063 C-5.340114593505859,-31.051101684570313 -5.800594329833984,-30.104446411132813 -7.014598846435547,-28.803726196289063 C-7.123180389404297,-28.687393188476563 -7.163967132568359,-28.503555297851563 -7.170848846435547,-28.303726196289063 C-7.177852630615234,-28.103897094726563 -7.148754119873047,-27.885208129882813 -7.108348846435547,-27.678726196289063 C-7.067943572998047,-27.472244262695313 -7.030544281005859,-27.281509399414063 -6.983348846435547,-27.147476196289063 C-6.959743499755859,-27.080459594726563 -6.940456390380859,-27.027725219726563 -6.920848846435547,-26.991226196289063 C-6.910854339599609,-26.972915649414063 -6.905956268310547,-26.943435668945313 -6.889644622802734,-26.928726196289063 C-6.885646820068359,-26.924697875976563 -6.865642547607422,-26.932754516601563 -6.858455657958984,-26.928726196289063 C-6.858501434326172,-26.926712036132813 -6.858562469482422,-26.900344848632813 -6.858455657958984,-26.897537231445313 C-6.858409881591797,-26.897476196289063 -6.827251434326172,-26.866348266601563 -6.827251434326172,-26.866348266601563 C-6.827251434326172,-26.866348266601563 -6.805355072021484,-26.856338500976563 -6.796047210693359,-26.866348266601563 C-6.796047210693359,-26.866348266601563 -6.764842987060547,-26.866348266601563 -6.764842987060547,-26.866348266601563 C-6.764705657958984,-26.866531372070313 -6.734554290771484,-26.895523071289063 -6.733654022216797,-26.897537231445313 C-6.728649139404297,-26.907913208007813 -6.738643646240234,-26.918411254882813 -6.733654022216797,-26.928726196289063 C-6.267314910888672,-27.876113891601563 -5.805782318115234,-28.448867797851563 -5.358654022216797,-28.803726196289063 C-4.906642913818359,-29.162429809570313 -4.461315155029297,-29.299331665039063 -4.046154022216797,-29.366226196289063 C-3.630992889404297,-29.433120727539063 -3.254192352294922,-29.410354614257813 -2.889904022216797,-29.491226196289063 C-2.525615692138672,-29.572097778320313 -2.1937522888183594,-29.738052368164063 -1.9211540222167969,-30.147476196289063 C-1.4546928405761719,-30.848037719726563 -1.6186485290527344,-31.422195434570313 -1.5461540222167969,-31.959976196289063 C-1.5099449157714844,-32.22889709472656 -1.3959770202636719,-32.50398254394531 -1.1399040222167969,-32.80372619628906 C-0.8838157653808594,-33.10346984863281 -0.4625358581542969,-33.42500305175781 0.23509597778320313,-33.80372619628906 C0.24510574340820313,-33.80873107910156 0.2572059631347656,-33.82472229003906 0.2663002014160156,-33.83491516113281 C0.2682991027832031,-33.83894348144531 0.2654457092285156,-33.86134338378906 0.2663002014160156,-33.86610412597656 C0.2662544250488281,-33.86689758300781 0.2673072814941406,-33.89283752441406 0.2663002014160156,-33.89735412597656 C0.2623023986816406,-33.90431213378906 0.2713050842285156,-33.92414855957031 0.2663002014160156,-33.92854309082031 C0.2572975158691406,-33.93751525878906 0.24409866333007813,-33.92451477050781 0.23509597778320313,-33.92854309082031 C0.19879531860351563,-33.94593811035156 0.14250564575195313,-33.95112609863281 0.07884597778320313,-33.95973205566406 C-0.048534393310546875,-33.97712707519531 -0.23739242553710938,-33.99092102050781 -0.4524040222167969,-33.99092102050781 C-0.4956016540527344,-33.99592590332031 -0.5126914978027344,-33.98890686035156 -0.5460929870605469,-33.99092102050781 C-0.7178001403808594,-34.00141906738281 -0.9623527526855469,-34.00453186035156 -1.2335929870605469,-33.99092102050781 C-1.2335929870605469,-33.99092102050781 -1.2960929870605469,-33.99092102050781 -1.2960929870605469,-33.99092102050781 C-1.2960929870605469,-33.99092102050781 -1.2958488464355469,-33.99122619628906 -1.2958488464355469,-33.99122619628906 C-1.2958488464355469,-33.99122619628906 -1.2958488464355469,-33.99122619628906 -1.2958488464355469,-33.99122619628906 Z"
    />
    <path
      d="M-14.702098846435547,-28.772476196289063 C-14.717098236083984,-28.770462036132813 -14.716793060302734,-28.748855590820313 -14.73330307006836,-28.741287231445313 C-14.744304656982422,-28.736282348632813 -14.754497528076172,-28.750259399414063 -14.76449203491211,-28.741287231445313 C-14.849498748779297,-28.742019653320313 -14.92074203491211,-28.736282348632813 -14.98324203491211,-28.710098266601563 C-15.018856048583984,-28.694961547851563 -15.056148529052734,-28.680862426757813 -15.076946258544922,-28.647598266601563 C-15.09774398803711,-28.614273071289063 -15.11764144897461,-28.564102172851563 -15.108150482177734,-28.522598266601563 C-14.87679672241211,-27.507888793945313 -14.813976287841797,-27.193618774414063 -14.420650482177734,-26.460098266601563 C-14.410655975341797,-26.441848754882813 -14.380855560302734,-26.407974243164063 -14.358150482177734,-26.397598266601563 C-14.335445404052734,-26.387161254882813 -14.313854217529297,-26.390579223632813 -14.295650482177734,-26.397598266601563 C-14.28164291381836,-26.402603149414063 -14.27584457397461,-26.421157836914063 -14.264446258544922,-26.428787231445313 C-14.261455535888672,-26.422805786132813 -14.237545013427734,-26.433792114257813 -14.23324203491211,-26.428787231445313 C-14.220149993896484,-26.412551879882813 -14.221248626708984,-26.372879028320313 -14.20205307006836,-26.366287231445313 C-14.176342010498047,-26.357254028320313 -14.133342742919922,-26.360305786132813 -14.108348846435547,-26.366287231445313 C-14.05825424194336,-26.377456665039063 -14.006267547607422,-26.386795043945313 -13.952098846435547,-26.428787231445313 C-13.843761444091797,-26.512649536132813 -13.719158172607422,-26.659683227539063 -13.608348846435547,-26.835037231445313 C-13.386730194091797,-27.185745239257813 -13.20931625366211,-27.694717407226563 -13.358348846435547,-28.178787231445313 C-13.432552337646484,-28.419570922851563 -13.672542572021484,-28.581314086914063 -13.920848846435547,-28.678787231445313 C-14.16915512084961,-28.776260375976563 -14.429485321044922,-28.806594848632813 -14.608348846435547,-28.772476196289063 C-14.631343841552734,-28.768447875976563 -14.677043914794922,-28.776504516601563 -14.70205307006836,-28.772476196289063 C-14.70205307006836,-28.772476196289063 -14.702098846435547,-28.772476196289063 -14.702098846435547,-28.772476196289063 C-14.702098846435547,-28.772476196289063 -14.702098846435547,-28.772476196289063 -14.702098846435547,-28.772476196289063 Z"
    />
    <path
      d="M26.391651153564453,-20.178726196289063 C25.216205596923828,-20.137344360351563 24.081363677978516,-19.313552856445313 23.547901153564453,-18.803726196289063 C23.065357208251953,-18.342483520507813 22.828388214111328,-17.834854125976563 22.735401153564453,-17.303787231445313 C22.642398834228516,-16.772598266601563 22.681400299072266,-16.196304321289063 22.70419692993164,-15.647476196289063 C22.74960708618164,-14.550003051757813 22.765705108642578,-13.488479614257813 21.67294692993164,-12.553787231445313 C21.654346466064453,-12.537796020507813 21.651248931884766,-12.513748168945313 21.64175796508789,-12.490798950195313 C21.63174819946289,-12.468765258789063 21.629154205322266,-12.450759887695313 21.64175796508789,-12.428787231445313 C21.666858673095703,-12.383804321289063 21.68985366821289,-12.375747680664063 21.73544692993164,-12.365798950195313 C21.819049835205078,-12.348770141601563 21.943103790283203,-12.349746704101563 22.07919692993164,-12.365798950195313 C22.07919692993164,-12.365798950195313 22.110401153564453,-12.365798950195313 22.110401153564453,-12.365798950195313 C22.14749526977539,-12.347793579101563 22.180301666259766,-12.335769653320313 22.235401153564453,-12.334793090820313 C22.303607940673828,-12.334793090820313 22.38730239868164,-12.320755004882813 22.485401153564453,-12.334793090820313 C22.681598663330078,-12.361770629882813 22.93826675415039,-12.430801391601563 23.204151153564453,-12.522293090820313 C23.735904693603516,-12.706192016601563 24.32004165649414,-13.012283325195313 24.672901153564453,-13.490982055664063 C25.059940338134766,-14.016250610351563 25.19516372680664,-14.863845825195313 25.329151153564453,-15.709793090820313 C25.463138580322266,-16.555679321289063 25.593753814697266,-17.398880004882813 26.016651153564453,-17.991043090820313 C26.333728790283203,-18.434951782226563 27.048297882080078,-18.678909301757813 27.672901153564453,-18.803543090820313 C27.985218048095703,-18.865798950195313 28.281208038330078,-18.892837524414063 28.485401153564453,-18.928543090820313 C28.58749771118164,-18.946304321289063 28.678272247314453,-18.970352172851563 28.735401153564453,-18.991043090820313 C28.763996124267578,-19.001419067382813 28.776996612548828,-19.000015258789063 28.797901153564453,-19.022232055664063 C28.808307647705078,-19.033523559570313 28.827808380126953,-19.064834594726563 28.829105377197266,-19.084732055664063 C28.830097198486328,-19.104629516601563 28.80710220336914,-19.103042602539063 28.797901153564453,-19.115921020507813 C28.199146270751953,-19.954177856445313 27.47140884399414,-20.200881958007813 26.735401153564453,-20.147171020507813 C26.643802642822266,-20.157485961914063 26.553287506103516,-20.174880981445313 26.454151153564453,-20.178359985351563 C26.43234634399414,-20.179153442382813 26.41385269165039,-20.179153442382813 26.391651153564453,-20.178359985351563 C26.391651153564453,-20.178359985351563 26.391651153564453,-20.178726196289063 26.391651153564453,-20.178726196289063 C26.391651153564453,-20.178726196289063 26.391651153564453,-20.178726196289063 26.391651153564453,-20.178726196289063 Z"
    />
    <path
      d="M31.922901153564453,-18.522476196289063 C31.205188751220703,-18.534988403320313 30.136768341064453,-18.321426391601563 28.797901153564453,-17.428787231445313 C28.256610870361328,-17.067764282226563 27.834247589111328,-16.611465454101563 27.579151153564453,-16.178787231445313 C27.324054718017578,-15.745986938476563 27.21524429321289,-15.341262817382813 27.329151153564453,-15.084976196289063 C27.379444122314453,-14.971755981445313 27.49484634399414,-14.900955200195313 27.641651153564453,-14.866165161132813 C27.788455963134766,-14.831192016601563 27.97525405883789,-14.830154418945313 28.172901153564453,-14.866165161132813 C28.479816436767578,-14.813186645507813 28.926456451416016,-14.911148071289063 29.391651153564453,-15.178787231445313 C29.856861114501953,-15.445999145507813 30.315265655517578,-15.890274047851563 30.704151153564453,-16.553787231445313 C30.925785064697266,-16.931777954101563 31.248828887939453,-17.188980102539063 31.672901153564453,-17.428787231445313 C32.09697341918945,-17.668472290039063 32.648075103759766,-17.880386352539063 33.32915115356445,-18.147476196289063 C33.343448638916016,-18.153457641601563 33.350345611572266,-18.160476684570313 33.360355377197266,-18.178665161132813 C33.3703498840332,-18.196853637695313 33.3653450012207,-18.225357055664063 33.360355377197266,-18.241165161132813 C33.35135269165039,-18.272659301757813 33.32155227661133,-18.284378051757813 33.297855377197266,-18.303665161132813 C33.25044631958008,-18.342300415039063 33.18417739868164,-18.391860961914063 33.079105377197266,-18.428665161132813 C32.86897659301758,-18.502273559570313 32.54745864868164,-18.545425415039063 32.110355377197266,-18.522354125976563 C32.041446685791016,-18.527359008789063 31.989688873291016,-18.521438598632813 31.922855377197266,-18.522354125976563 C31.922855377197266,-18.522354125976563 31.922901153564453,-18.522476196289063 31.922901153564453,-18.522476196289063 C31.922901153564453,-18.522476196289063 31.922901153564453,-18.522476196289063 31.922901153564453,-18.522476196289063 Z"
    />
    <path
      d="M23.110401153564453,4.1650238037109375 C23.07840347290039,4.1650238037109375 23.079395294189453,4.2220306396484375 23.047901153564453,4.2270355224609375 C22.678287506103516,4.2930145263671875 22.299320220947266,4.4188079833984375 22.172901153564453,4.7270355224609375 C22.035465240478516,5.0619354248046875 22.19949722290039,5.6056365966796875 22.516651153564453,6.1333465576171875 C22.833820343017578,6.6609344482421875 23.315006256103516,7.1638031005859375 23.922901153564453,7.4145355224609375 C24.384647369384766,7.6049652099609375 24.820392608642578,7.6651458740234375 25.204151153564453,7.6332855224609375 C26.157352447509766,7.6973724365234375 26.853946685791016,7.1378021240234375 27.266651153564453,6.5707244873046875 C27.473011016845703,6.2872161865234375 27.60446548461914,6.0073089599609375 27.672901153564453,5.7895355224609375 C27.707096099853516,5.6806488037109375 27.73740005493164,5.5796356201171875 27.735401153564453,5.5083465576171875 C27.734394073486328,5.4723358154296875 27.72189712524414,5.4433441162109375 27.70419692993164,5.4143524169921875 C27.68649673461914,5.3852996826171875 27.645694732666016,5.3802947998046875 27.61050796508789,5.3833465576171875 C26.717548370361328,5.4513397216796875 26.259296417236328,5.2374114990234375 25.86050796508789,4.9770355224609375 C25.46170425415039,4.7165985107421875 25.103473663330078,4.3998260498046875 24.45425796508789,4.2270355224609375 C24.194904327392578,4.1580047607421875 23.914478302001953,4.1739959716796875 23.64175796508789,4.1960296630859375 C23.63064956665039,4.1960296630859375 23.630054473876953,4.2060394287109375 23.610553741455078,4.1960296630859375 C23.590946197509766,4.1860198974609375 23.550357818603516,4.1660003662109375 23.516849517822266,4.1650238037109375 C23.402088165283203,4.1550140380859375 23.29129409790039,4.1550140380859375 23.173099517822266,4.1650238037109375 C23.173099517822266,4.1650238037109375 23.110401153564453,4.1650238037109375 23.110401153564453,4.1650238037109375 C23.110401153564453,4.1650238037109375 23.110401153564453,4.1650238037109375 23.110401153564453,4.1650238037109375 Z"
    />
    <path
      d="M-24.702098846435547,13.571273803710938 C-24.792301177978516,13.571273803710938 -24.85568618774414,13.599227905273438 -24.920848846435547,13.665267944335938 C-24.98604965209961,13.731185913085938 -25.06313705444336,13.819076538085938 -25.108348846435547,13.915267944335938 C-25.198749542236328,14.107650756835938 -25.253910064697266,14.326522827148438 -25.264598846435547,14.477767944335938 C-25.27669906616211,14.648788452148438 -25.22079849243164,14.944931030273438 -25.170902252197266,15.196395874023438 C-25.12099838256836,15.447982788085938 -25.077198028564453,15.665267944335938 -25.077198028564453,15.665267944335938 C-25.077198028564453,15.665267944335938 -25.046001434326172,15.790267944335938 -25.046001434326172,15.790267944335938 C-25.046001434326172,15.790267944335938 -25.01479721069336,15.728256225585938 -25.01479721069336,15.728256225585938 C-25.01479721069336,15.728256225585938 -24.921100616455078,15.666244506835938 -24.921100616455078,15.666244506835938 C-24.921100616455078,15.666244506835938 -24.891300201416016,15.636215209960938 -24.889896392822266,15.635238647460938 C-24.889896392822266,15.635238647460938 -24.889766693115234,15.618270874023438 -24.889896392822266,15.604232788085938 C-24.828601837158203,15.565170288085938 -24.278430938720703,15.255722045898438 -24.171146392822266,14.635482788085938 C-24.102649688720703,14.239730834960938 -24.308307647705078,13.907699584960938 -24.452396392822266,13.729232788085938 C-24.452396392822266,13.729232788085938 -24.452396392822266,13.698226928710938 -24.452396392822266,13.698226928710938 C-24.457401275634766,13.686264038085938 -24.46419906616211,13.654281616210938 -24.483600616455078,13.636215209960938 C-24.506298065185547,13.614242553710938 -24.52529525756836,13.590194702148438 -24.546100616455078,13.573226928710938 C-24.556499481201172,13.563217163085938 -24.55820083618164,13.573226928710938 -24.57729721069336,13.573226928710938 C-24.596500396728516,13.573226928710938 -24.62399673461914,13.560165405273438 -24.63979721069336,13.573226928710938 C-24.63979721069336,13.573226928710938 -24.70229721069336,13.573226928710938 -24.70229721069336,13.573226928710938 C-24.70229721069336,13.573226928710938 -24.702098846435547,13.571273803710938 -24.702098846435547,13.571273803710938 C-24.702098846435547,13.571273803710938 -24.702098846435547,13.571273803710938 -24.702098846435547,13.571273803710938 Z"
    />
    <path
      d="M-27.952098846435547,13.821273803710938 C-28.39639663696289,13.811264038085938 -28.90292739868164,13.956771850585938 -29.483348846435547,14.321273803710938 C-30.41171646118164,14.904281616210938 -30.726612091064453,15.638778686523438 -31.077098846435547,16.383773803710938 C-31.42758560180664,17.128768920898438 -31.814128875732422,17.887680053710938 -32.88959884643555,18.540023803710938 C-32.94039535522461,18.571029663085938 -32.96439743041992,18.621078491210938 -32.98329544067383,18.665023803710938 C-33.002201080322266,18.708969116210938 -33.00870132446289,18.751083374023438 -32.98329544067383,18.790023803710938 C-32.93239974975586,18.868026733398438 -32.81772232055664,18.931381225585938 -32.67079544067383,18.977523803710938 C-32.376949310302734,19.069564819335938 -31.909961700439453,19.099960327148438 -31.327045440673828,19.071517944335938 C-30.217182159423828,19.093490600585938 -28.533138275146484,18.813339233398438 -27.045795440673828,17.821517944335938 C-25.956668853759766,17.095443725585938 -25.50375747680664,15.712265014648438 -25.983295440673828,14.790267944335938 C-26.279552459716797,14.220687866210938 -26.927616119384766,13.733016967773438 -27.827045440673828,13.852767944335938 C-27.836048126220703,13.852767944335938 -27.837947845458984,13.828842163085938 -27.85824966430664,13.821884155273438 C-27.865245819091797,13.821884155273438 -27.881145477294922,13.821884155273438 -27.889446258544922,13.821884155273438 C-27.889446258544922,13.821884155273438 -27.951946258544922,13.821884155273438 -27.951946258544922,13.821884155273438 C-27.951946258544922,13.821884155273438 -27.952098846435547,13.821273803710938 -27.952098846435547,13.821273803710938 C-27.952098846435547,13.821273803710938 -27.952098846435547,13.821273803710938 -27.952098846435547,13.821273803710938 Z"
    />
    <path
      d="M-25.920848846435547,20.321273803710938 C-25.920848846435547,20.321273803710938 -26.014545440673828,20.352279663085938 -26.014545440673828,20.352279663085938 C-26.03494644165039,20.362167358398438 -26.03024673461914,20.398178100585938 -26.04574966430664,20.414169311523438 C-26.086345672607422,20.457260131835938 -26.123950958251953,20.499252319335938 -26.139446258544922,20.570419311523438 C-26.160846710205078,20.669418334960938 -26.171649932861328,20.790267944335938 -26.139446258544922,20.914169311523438 C-26.07504653930664,21.161972045898438 -25.855037689208984,21.413314819335938 -25.451946258544922,21.508041381835938 C-25.434246063232422,21.509017944335938 -25.39974594116211,21.508041381835938 -25.389446258544922,21.508041381835938 C-25.328250885009766,21.535995483398438 -25.228588104248047,21.580062866210938 -25.139446258544922,21.602035522460938 C-24.760845184326172,21.691024780273438 -24.40018081665039,21.602035522460938 -24.139446258544922,21.477035522460938 C-24.009075164794922,21.411972045898438 -23.911418914794922,21.341171264648438 -23.858196258544922,21.258285522460938 C-23.831600189208984,21.216293334960938 -23.788196563720703,21.180282592773438 -23.795696258544922,21.133285522460938 C-23.80270004272461,21.086288452148438 -23.844196319580078,21.036361694335938 -23.889400482177734,21.008285522460938 C-24.17867660522461,20.830062866210938 -24.51840591430664,20.761093139648438 -24.858150482177734,20.695663452148438 C-25.197879791259766,20.630722045898438 -25.53848648071289,20.568710327148438 -25.826900482177734,20.383285522460938 C-25.828899383544922,20.383285522460938 -25.846599578857422,20.362289428710938 -25.858097076416016,20.352279663085938 C-25.868396759033203,20.342269897460938 -25.878795623779297,20.352279663085938 -25.889301300048828,20.352279663085938 C-25.899898529052734,20.352279663085938 -25.910099029541016,20.353012084960938 -25.92049789428711,20.352279663085938 C-25.92049789428711,20.352279663085938 -25.92049789428711,20.321273803710938 -25.92049789428711,20.321273803710938 C-25.92049789428711,20.321273803710938 -25.920848846435547,20.321273803710938 -25.920848846435547,20.321273803710938 C-25.920848846435547,20.321273803710938 -25.920848846435547,20.321273803710938 -25.920848846435547,20.321273803710938 Z"
    />
    <path
      d="M-14.827098846435547,26.727523803710938 C-15.391613006591797,26.771469116210938 -15.870723724365234,26.940292358398438 -16.170848846435547,27.102523803710938 C-16.320903778076172,27.183578491210938 -16.420650482177734,27.255111694335938 -16.483348846435547,27.321273803710938 C-16.514751434326172,27.354232788085938 -16.541454315185547,27.372177124023438 -16.545848846435547,27.415267944335938 C-16.547847747802734,27.437240600585938 -16.532955169677734,27.492172241210938 -16.514644622802734,27.509262084960938 C-16.49624252319336,27.526229858398438 -16.472042083740234,27.509262084960938 -16.452144622802734,27.509262084960938 C-15.56588363647461,27.596176147460938 -15.144359588623047,28.018905639648438 -14.764644622802734,28.477890014648438 C-14.384944915771484,28.936874389648438 -14.066829681396484,29.442611694335938 -13.452144622802734,29.727890014648438 C-13.181865692138672,29.853500366210938 -12.861125946044922,29.854843139648438 -12.577144622802734,29.821884155273438 C-12.029796600341797,29.907943725585938 -11.470333099365234,29.745956420898438 -11.202144622802734,29.321884155273438 C-11.021175384521484,29.035873413085938 -10.952251434326172,28.690658569335938 -11.077144622802734,28.353256225585938 C-11.202037811279297,28.015853881835938 -11.497982025146484,27.669784545898438 -12.045894622802734,27.321884155273438 C-12.777416229248047,26.857650756835938 -13.489879608154297,26.726669311523438 -14.108394622802734,26.728256225585938 C-14.341472625732422,26.700180053710938 -14.556514739990234,26.713241577148438 -14.764644622802734,26.728256225585938 C-14.78445053100586,26.728256225585938 -14.807750701904297,26.728256225585938 -14.827144622802734,26.728256225585938 C-14.827144622802734,26.728256225585938 -14.827098846435547,26.727523803710938 -14.827098846435547,26.727523803710938 C-14.827098846435547,26.727523803710938 -14.827098846435547,26.727523803710938 -14.827098846435547,26.727523803710938 Z"
    />
  </g>
</svg>